<?xml version="1.0" standalone="no"?>
<!DOCTYPE svg PUBLIC "-//W3C//DTD SVG 1.1//EN" "http://www.w3.org/Graphics/SVG/1.1/DTD/svg11.dtd" >
<svg xmlns="http://www.w3.org/2000/svg" xmlns:xlink="http://www.w3.org/1999/xlink" version="1.1">
<metadata>
Created by FontForge 20201107 at Tue May  8 11:07:04 2007
 By Jimmy Wärting
Copyright (c) 1992 Adobe Systems Incorporated.  All Rights Reserved.AG Book is a trademark of H. Berthold AG.
</metadata>
<defs>
<font id="AGBook-Stencil" horiz-adv-x="604" >
  <font-face 
    font-family="AG Book"
    font-weight="500"
    font-stretch="normal"
    units-per-em="1000"
    panose-1="0 0 0 0 0 0 0 0 0 0"
    ascent="800"
    descent="-200"
    x-height="541"
    cap-height="706"
    bbox="-60 -237 1036 949"
    underline-thickness="50"
    underline-position="-125"
    stemh="131"
    stemv="160"
    unicode-range="U+0020-FB02"
  />
<missing-glyph horiz-adv-x="292" 
 />
    <glyph glyph-name=".notdef" horiz-adv-x="292" 
 />
    <glyph glyph-name="space" unicode=" " horiz-adv-x="292" 
 />
    <glyph glyph-name="exclam" unicode="!" horiz-adv-x="292" 
d="M240 0h-147v147h147v-147zM116 201l-23 266v239h153v-239l-28 -266h-102z" />
    <glyph glyph-name="quotedbl" unicode="&#x22;" horiz-adv-x="458" 
d="M403 669l-53 -261h-31l-55 250c-2 10 -2 22 -2 23c0 50 44 68 75 68c25 0 68 -13 68 -64c0 -4 0 -9 -2 -16zM195 669l-53 -261h-31l-55 250c-2 10 -2 22 -2 23c0 50 44 68 75 68c25 0 68 -13 68 -64c0 -4 0 -9 -2 -16z" />
    <glyph glyph-name="dollar" unicode="$" horiz-adv-x="583" 
d="M222 123v-130c-191 35 -198 181 -200 224h140c-3 -63 41 -87 60 -94zM248 -105v398c-104 33 -209 65 -209 205c0 131 97 187 183 197v-124c-22 -7 -47 -23 -47 -62c0 -47 41 -64 73 -73v359h80v-383c81 -25 112 -35 146 -60c70 -53 70 -126 70 -147
c0 -117 -70 -162 -90 -175c-40 -26 -73 -32 -100 -37v132c29 14 48 36 48 67c0 50 -52 68 -74 75v-372h-80zM524 490l-131 -6c-2 55 -27 72 -39 79v130c142 -29 163 -127 170 -203z" />
    <glyph glyph-name="percent" unicode="%" horiz-adv-x="875" 
d="M175 333v-90c-102 11 -153 85 -153 226c0 47 0 210 153 231v-90c-51 -15 -55 -87 -55 -132c0 -79 9 -134 55 -145zM201 611v89c152 -8 152 -175 152 -217c0 -50 -4 -130 -51 -187c-35 -42 -77 -49 -101 -52v89c51 18 54 104 54 139c0 93 -19 132 -54 139zM339 0h-88
l283 690h88zM673 79v-87c-16 1 -39 4 -64 17c-74 40 -88 139 -88 209c0 119 39 218 152 229v-90c-54 -14 -54 -103 -54 -130c0 -32 0 -68 11 -99c11 -35 25 -41 43 -49zM699 -8v90c31 8 55 47 55 133c0 113 -23 135 -55 145v87c153 -5 153 -180 153 -217
c0 -67 -8 -137 -51 -187c-37 -42 -80 -48 -102 -51z" />
    <glyph glyph-name="ampersand" unicode="&#x26;" horiz-adv-x="625" 
d="M236 113v-123c-38 4 -64 6 -100 24c-68 35 -116 107 -116 190c0 114 84 163 144 199c-13 22 -39 67 -39 125c0 81 58 158 165 167v-117c-32 -8 -39 -33 -39 -48c0 -24 14 -49 30 -76c24 10 70 31 70 78c0 31 -27 42 -35 46v117c139 -18 158 -125 158 -165
c0 -103 -76 -145 -128 -174l83 -116c15 28 25 55 29 108h132c-17 -82 -34 -131 -75 -196c24 -17 49 -31 78 -31c5 0 8 0 16 1v-122c-15 -1 -25 -2 -38 -2c-70 0 -108 26 -142 57c-63 -48 -113 -60 -167 -65v123c45 4 67 18 84 29l-119 162c-19 -11 -71 -41 -71 -99
c0 -14 0 -69 80 -92z" />
    <glyph glyph-name="quoteright" unicode="&#x2019;" horiz-adv-x="250" 
d="M199 706v-130c0 -39 -1 -73 -34 -115c-41 -53 -92 -65 -119 -72v54c21 10 76 38 81 115h-75v148h147z" />
    <glyph glyph-name="parenleft" unicode="(" horiz-adv-x="354" 
d="M349 -176h-134c-85 119 -152 251 -152 439c0 123 26 263 158 443h128c-118 -195 -131 -340 -131 -457c0 -152 39 -303 131 -425z" />
    <glyph glyph-name="parenright" unicode=")" horiz-adv-x="354" 
d="M131 -175h-126c14 24 30 51 54 105c40 90 76 190 76 348c0 162 -43 315 -130 428h132c60 -86 152 -218 152 -433c0 -148 -38 -243 -85 -332c-29 -54 -53 -89 -73 -116z" />
    <glyph glyph-name="asterisk" unicode="*" horiz-adv-x="396" 
d="M124 514l-106 37l26 79l107 -37v113h85v-113l106 37l27 -79l-107 -37l68 -90l-68 -51l-70 94l-68 -94l-68 51z" />
    <glyph glyph-name="comma" unicode="," horiz-adv-x="250" 
d="M39 -170v55c72 36 80 85 86 115h-76v150h148v-131c-1 -26 -2 -67 -32 -109c-33 -45 -82 -69 -126 -80z" />
    <glyph glyph-name="hyphen" unicode="-" horiz-adv-x="375" 
d="M40 259v119h294v-119h-294z" />
    <glyph glyph-name="period" unicode="." horiz-adv-x="250" 
d="M198 0h-148v149h148v-149z" />
    <glyph glyph-name="slash" unicode="/" horiz-adv-x="458" 
d="M146 0h-126l294 706h126z" />
    <glyph glyph-name="zero" unicode="0" horiz-adv-x="562" 
d="M268 112v-122c-86 5 -128 35 -159 69c-37 42 -84 117 -84 302c0 54 0 326 243 343v-120c-13 -3 -30 -7 -50 -23c-55 -48 -56 -157 -56 -202c0 -76 10 -150 31 -191c18 -33 43 -50 75 -56zM294 584v120c25 -1 59 -2 97 -20c140 -66 145 -255 145 -328
c0 -173 -43 -345 -242 -366v122c85 15 106 120 106 244c0 129 -29 216 -106 228z" />
    <glyph glyph-name="one" unicode="1" horiz-adv-x="562" 
d="M210 468h-134v105c20 -1 88 -5 134 28v-133zM237 0v631c2 5 5 9 7 14c9 20 11 35 13 46h124v-691h-144z" />
    <glyph glyph-name="two" unicode="2" horiz-adv-x="562" 
d="M517 0h-475v125h475v-125zM184 435l-138 6c0 11 0 32 4 61c2 24 10 48 20 70c52 111 146 124 199 129v-130c-18 -2 -41 -5 -63 -33c-16 -21 -23 -54 -23 -84c0 -6 0 -11 1 -19zM273 151h-191c172 141 183 151 220 193c29 34 63 84 63 137c0 70 -48 83 -70 89v131
c86 -3 209 -50 209 -212c0 -140 -97 -228 -231 -338z" />
    <glyph glyph-name="three" unicode="3" horiz-adv-x="562" 
d="M267 109v-119c-55 2 -96 19 -113 27c-113 56 -116 168 -118 223l136 6c-1 -37 -4 -124 95 -137zM186 464l-134 8c2 62 7 215 215 229v-115c-79 -15 -80 -81 -81 -122zM293 -9v117c62 10 90 59 90 104c0 40 -22 98 -110 98c-17 0 -30 -2 -46 -4v118c10 -1 23 -3 38 -3
c55 0 99 27 99 83c0 7 0 68 -71 80v118c60 -3 121 -20 162 -65c25 -28 44 -70 44 -122c0 -62 -26 -114 -87 -142c100 -23 116 -119 116 -161c0 -88 -58 -210 -235 -221z" />
    <glyph glyph-name="four" unicode="4" horiz-adv-x="562" 
d="M22 148v144l258 360v-196l-136 -191h136v-117h-258zM442 0h-136v689h136v-424h93v-117h-93v-148z" />
    <glyph glyph-name="five" unicode="5" horiz-adv-x="562" 
d="M263 110v-119c-216 4 -238 176 -243 216l140 6c4 -34 11 -94 103 -103zM177 309h-129l39 227h122l-21 -96c24 15 39 22 75 31v-114c-14 -1 -64 -7 -86 -48zM490 562h-399l22 128h390zM290 -8v120c84 21 94 98 94 128c0 72 -41 106 -94 117v117c157 9 235 -108 235 -230
c0 -100 -53 -238 -235 -252z" />
    <glyph glyph-name="six" unicode="6" horiz-adv-x="562" 
d="M278 110v-119c-34 2 -104 6 -163 70c-39 42 -80 114 -80 278c0 100 15 204 81 280c44 50 95 73 162 80v-114c-18 -4 -42 -9 -66 -40c-17 -21 -41 -67 -45 -140c20 24 60 71 152 71c151 0 215 -123 215 -232c0 -91 -45 -243 -229 -253v119c21 5 97 22 97 129
c0 88 -59 119 -110 119c-53 0 -114 -34 -114 -123c0 -31 8 -108 100 -125zM521 520l-132 -8c-6 36 -19 72 -84 75v114c157 -3 202 -94 216 -181z" />
    <glyph glyph-name="seven" unicode="7" horiz-adv-x="562" 
d="M506 560h-457v128h457v-128zM288 0h-154c7 82 15 150 44 239c43 133 126 259 157 295h144c-8 -9 -71 -79 -124 -203c-44 -105 -67 -218 -67 -331z" />
    <glyph glyph-name="eight" unicode="8" horiz-adv-x="562" 
d="M268 105v-115c-19 1 -68 2 -118 25c-84 38 -121 113 -121 192c0 107 61 144 95 164c-47 25 -74 77 -74 135c0 87 58 185 218 196v-115c-53 -10 -87 -38 -87 -87c0 -52 36 -86 96 -86c52 0 104 24 104 91c0 38 -22 75 -87 82v115c23 -1 71 -4 118 -28
c100 -51 100 -144 100 -166c0 -54 -19 -109 -75 -137c24 -14 94 -53 94 -162c0 -123 -84 -212 -237 -219v115c17 3 104 17 104 105c0 62 -45 105 -117 105c-85 0 -119 -57 -119 -106c0 -54 37 -98 106 -104z" />
    <glyph glyph-name="nine" unicode="9" horiz-adv-x="562" 
d="M285 -7v114c87 19 107 115 112 180c-25 -30 -64 -72 -152 -72c-143 0 -215 111 -215 233c0 112 63 246 228 252v-119c-85 -17 -96 -94 -96 -131c0 -75 49 -117 109 -117c56 0 114 38 114 120c0 25 -7 116 -100 127v120c155 -13 243 -111 243 -349c0 -48 -2 -185 -80 -278
c-51 -60 -109 -71 -163 -80zM258 104v-113c-25 0 -96 2 -150 48c-39 34 -57 79 -66 132l132 9c10 -69 55 -73 84 -76z" />
    <glyph glyph-name="colon" unicode=":" horiz-adv-x="292" 
d="M92 347v148h149v-148h-149zM241 0h-149v148h149v-148z" />
    <glyph glyph-name="semicolon" unicode=";" horiz-adv-x="292" 
d="M91 0v146h150v-120c-3 -149 -103 -179 -156 -194v53c20 8 77 32 80 115h-74zM91 346v146h150v-146h-150z" />
    <glyph glyph-name="question" unicode="?" horiz-adv-x="562" 
d="M152 481h-143c7 94 26 231 250 242v-122c-91 -5 -104 -77 -107 -120zM206 0v147h149v-147h-149zM347 208h-141c5 15 5 19 5 53c0 9 0 24 8 47c17 46 38 63 99 111c19 15 52 40 52 91c0 74 -59 85 -86 90v124c234 -8 234 -193 234 -212c0 -45 -10 -108 -106 -184
c-53 -42 -62 -49 -65 -120z" />
    <glyph glyph-name="A" unicode="A" horiz-adv-x="667" 
d="M173 0h-179l243 706h181l250 -706h-179l-46 150h-198l38 129h121l-51 168c-12 49 -14 57 -24 104c-9 -46 -11 -55 -23 -100z" />
    <glyph glyph-name="B" unicode="B" horiz-adv-x="667" 
d="M216 0h-160v706h160v-706zM395 0h-154v131h54c80 1 118 2 144 22c11 9 33 33 33 70c0 21 -7 38 -16 51c-23 32 -58 33 -90 34h-125v127h101c26 0 60 0 80 9c8 4 37 21 37 60c0 16 -4 29 -13 41c-23 30 -63 30 -92 30h-113v131h140c45 -1 113 -3 167 -43
c37 -26 68 -71 68 -135c0 -101 -76 -137 -99 -148c25 -11 118 -53 118 -172c0 -57 -20 -97 -37 -121c-58 -79 -137 -83 -203 -87z" />
    <glyph glyph-name="C" unicode="C" horiz-adv-x="708" 
d="M372 119v-134c-41 2 -89 5 -148 32c-97 46 -193 158 -193 337c0 168 91 356 341 365v-131c-154 -15 -170 -160 -170 -243c0 -161 87 -221 170 -226zM690 492l-161 -12c-6 33 -31 99 -130 108v131c69 -3 113 -18 138 -29c123 -56 145 -161 153 -198zM534 247l167 -10
c-6 -33 -21 -116 -92 -178c-70 -62 -152 -69 -210 -74v134c106 14 131 82 135 128z" />
    <glyph glyph-name="D" unicode="D" horiz-adv-x="688" 
d="M215 0h-160v707h160v-707zM308 0h-67v131c71 -1 110 1 143 13c80 28 101 125 101 215c0 72 -16 165 -93 199c-35 15 -76 16 -151 17v132h77c137 -2 214 -44 268 -120c55 -79 68 -166 68 -234c0 -99 -30 -197 -99 -268c-77 -78 -170 -82 -247 -85z" />
    <glyph glyph-name="E" unicode="E" 
d="M215 0h-159v706h159v-706zM579 0h-337v131h337v-131zM572 577h-330v129h330v-129zM546 309h-304v127h304v-127z" />
    <glyph glyph-name="F" unicode="F" horiz-adv-x="583" 
d="M54 0v706h159v-706h-159zM530 297h-291v126h291v-126zM574 575h-335v131h335v-131z" />
    <glyph glyph-name="G" unicode="G" horiz-adv-x="750" 
d="M372 119v-136c-267 -8 -336 210 -336 362c0 261 166 376 336 379v-134c-65 -6 -170 -53 -170 -229c0 -58 9 -99 19 -127c38 -103 114 -111 151 -115zM384 265v128h318l-6 -392h-112l-8 84c-63 -82 -135 -94 -177 -100v134c51 7 129 22 161 146h-176zM699 484l-155 -9
c-27 88 -75 108 -145 115v135c42 -2 81 -4 134 -26c97 -39 149 -111 166 -215z" />
    <glyph glyph-name="H" unicode="H" horiz-adv-x="688" 
d="M215 0h-160v707h160v-707zM472 306h-231v132h231v269h159v-707h-159v306z" />
    <glyph glyph-name="I" unicode="I" horiz-adv-x="271" 
d="M214 0h-159v706h159v-706z" />
    <glyph glyph-name="J" unicode="J" horiz-adv-x="521" 
d="M5 222v54h154c-3 -100 -4 -141 66 -153v-136c-38 3 -72 6 -111 23c-106 48 -108 140 -109 212zM475 706v-489c-1 -55 -2 -154 -109 -204c-9 -5 -52 -25 -114 -26v136c60 7 63 55 64 82v501h159z" />
    <glyph glyph-name="K" unicode="K" horiz-adv-x="667" 
d="M215 0h-160v706h160v-706zM488 0l-248 293v174l223 239h206l-323 -320l339 -386h-197z" />
    <glyph glyph-name="L" unicode="L" horiz-adv-x="562" 
d="M216 0h-160v707h160v-707zM551 0h-310v133h310v-133z" />
    <glyph glyph-name="M" unicode="M" horiz-adv-x="833" 
d="M205 0h-149v706h149v-706zM337 0l-106 382v324h47c28 -107 56 -213 86 -320c30 -109 37 -136 52 -217c15 75 24 113 55 231c26 102 52 204 79 306h52v-317l-106 -389h-159zM776 0h-148v706h148v-706z" />
    <glyph glyph-name="N" unicode="N" horiz-adv-x="688" 
d="M216 0h-159v659l152 -255zM481 0l-424 706h153l421 -706h-150zM479 308l-6 398h158v-654z" />
    <glyph glyph-name="O" unicode="O" horiz-adv-x="771" 
d="M370 123v-136c-228 4 -337 188 -337 370c0 179 97 358 337 369v-134c-135 -17 -170 -138 -170 -234c0 -30 1 -112 54 -177c33 -41 70 -53 116 -58zM397 -13v136c46 6 85 17 119 59c45 54 52 118 52 174c0 142 -62 222 -171 236v134c286 -19 337 -246 337 -368
c0 -209 -127 -360 -337 -371z" />
    <glyph glyph-name="P" unicode="P" horiz-adv-x="625" 
d="M216 0h-160v706h160v-706zM322 244h-80v131h51c35 0 62 -1 88 8c61 20 64 84 64 96c0 8 0 48 -34 75c-28 21 -54 22 -101 23h-68v129h76c72 -1 145 -2 203 -45c43 -32 82 -93 82 -188c0 -73 -30 -145 -89 -187c-53 -37 -106 -39 -192 -42z" />
    <glyph glyph-name="Q" unicode="Q" horiz-adv-x="771" 
d="M423 124l125 -102c-53 -26 -113 -38 -172 -38c-228 0 -343 181 -343 368c0 212 126 371 351 371c217 0 350 -159 350 -365c0 -114 -38 -185 -50 -208l-129 106c6 22 12 42 12 84c0 41 -3 83 -16 122c-23 73 -83 127 -167 127c-118 0 -185 -99 -185 -234
c0 -136 65 -235 181 -235c16 0 28 2 43 4zM655 -32l-265 217l85 104l265 -219z" />
    <glyph glyph-name="R" unicode="R" horiz-adv-x="667" 
d="M213 0h-159v706h159v-706zM314 260h-75v128h73c55 0 144 1 144 99c0 88 -77 86 -128 86h-89v133h113c68 -1 134 -2 189 -42c70 -52 70 -132 70 -153c0 -110 -67 -163 -126 -171c20 -6 52 -15 75 -56c15 -27 17 -39 34 -145c11 -68 25 -102 51 -139h-168
c-12 21 -25 41 -35 98c-5 25 -7 52 -12 77c-16 79 -53 85 -116 85z" />
    <glyph glyph-name="S" unicode="S" horiz-adv-x="667" 
d="M321 115l1 -133c-152 0 -287 57 -295 241l158 9c4 -48 16 -106 136 -117zM385 272l-142 33c-63 17 -194 53 -194 206c0 125 90 168 114 180c36 17 78 29 158 31v-128c-29 0 -111 -2 -111 -70c0 -47 38 -59 84 -71l108 -25c96 -24 224 -57 224 -217
c0 -156 -122 -225 -277 -228v133c17 1 115 4 115 80c0 53 -47 67 -79 76zM615 499l-157 -12c-5 63 -29 96 -110 106v129c61 -1 147 -15 203 -71c51 -51 60 -120 64 -152z" />
    <glyph glyph-name="T" unicode="T" horiz-adv-x="583" 
d="M0 575v131h185v-131h-185zM370 0h-160v706h160v-706zM582 575h-186v131h186v-131z" />
    <glyph glyph-name="U" unicode="U" horiz-adv-x="667" 
d="M48 257v449h160v-432c0 -70 2 -146 111 -155v-136c-37 0 -95 4 -150 30c-116 53 -119 155 -121 244zM616 706v-427c1 -117 2 -284 -271 -296v136c110 11 111 81 111 160v427h160z" />
    <glyph glyph-name="V" unicode="V" horiz-adv-x="646" 
d="M247 0l-247 706h173l224 -706h-150zM411 41l-73 231l135 434h171z" />
    <glyph glyph-name="W" unicode="W" horiz-adv-x="896" 
d="M198 0l-199 706h159l185 -706h-145zM357 48l-71 271l85 387h152l173 -706h-144l-103 467zM710 47l-68 284l97 375h157z" />
    <glyph glyph-name="X" unicode="X" horiz-adv-x="646" 
d="M177 0h-180l220 343l90 -140zM468 0l-452 706h179l453 -706h-180zM428 392l-89 140l111 174h179z" />
    <glyph glyph-name="Y" unicode="Y" horiz-adv-x="625" 
d="M232 264l-237 442h177l219 -442v-264h-159v264zM407 291l-80 161l127 254h176z" />
    <glyph glyph-name="Z" unicode="Z" horiz-adv-x="646" 
d="M118 0h-97v118l501 589h90v-124zM42 574v133h444l-112 -133h-332zM619 0h-466l109 130h357v-130z" />
    <glyph glyph-name="bracketleft" unicode="[" horiz-adv-x="375" 
d="M211 -170h-148v876h148v-876zM360 -170h-122v116h122v-116zM360 589h-122v117h122v-117z" />
    <glyph glyph-name="bracketright" unicode="]" horiz-adv-x="375" 
d="M138 -170h-123v116h123v-116zM15 587v119h123v-119h-123zM311 -170h-147v876h147v-876z" />
    <glyph glyph-name="underscore" unicode="_" horiz-adv-x="500" 
d="M510 -75v-50h-520v50h520z" />
    <glyph glyph-name="quoteleft" unicode="&#x2018;" horiz-adv-x="250" 
d="M198 396h-148v127c1 46 4 150 157 193v-55c-30 -14 -80 -48 -83 -115h74v-150z" />
    <glyph glyph-name="a" unicode="a" horiz-adv-x="583" 
d="M346 351v-106c-14 -4 -82 -17 -98 -21c-43 -12 -66 -29 -66 -63s27 -58 72 -58c20 0 57 4 92 30c-2 -18 -3 -35 -3 -52c0 -9 3 -52 3 -61c-47 -38 -118 -38 -133 -38c-102 0 -187 63 -187 174c0 128 107 154 158 165c22 5 136 24 162 30zM198 367h-142
c8 124 91 188 232 188c58 0 119 -8 166 -42c67 -47 69 -113 71 -173v-233c0 -51 2 -74 20 -106h-164c-8 19 -11 32 -12 80v276c1 29 2 78 -81 78c-17 0 -88 -2 -90 -68z" />
    <glyph glyph-name="b" unicode="b" 
d="M212 0h-156v707h156v-707zM237 402v129c26 12 57 26 106 26c151 0 229 -128 229 -278c0 -161 -78 -296 -230 -296c-58 0 -92 23 -105 32v126c12 -11 31 -29 69 -29c88 0 110 92 110 173c0 28 -2 72 -28 107c-13 18 -36 39 -76 39c-42 0 -63 -19 -75 -29z" />
    <glyph glyph-name="c" unicode="c" horiz-adv-x="562" 
d="M291 117v-132c-194 6 -258 152 -258 284c0 204 135 285 258 289v-125c-88 -14 -98 -107 -98 -160c0 -24 1 -78 30 -116c23 -30 51 -37 68 -40zM317 -14v131c57 9 77 39 88 92l152 -7c-13 -99 -78 -208 -240 -216zM553 355l-151 -8c-13 65 -45 78 -85 86v126
c86 -2 136 -35 163 -59c58 -52 67 -110 73 -145z" />
    <glyph glyph-name="d" unicode="d" 
d="M367 142v-130c-20 -9 -53 -26 -101 -26c-134 0 -235 110 -235 284c0 177 107 287 236 287c52 0 88 -19 100 -26v-129c-13 11 -31 27 -68 27c-62 0 -110 -59 -110 -159c0 -53 17 -155 110 -155c42 0 58 17 68 27zM547 1h-155v705h155v-705z" />
    <glyph glyph-name="e" unicode="e" 
d="M414 169l156 -11c-7 -18 -19 -49 -47 -83c-52 -62 -132 -90 -213 -90c-184 0 -277 131 -277 284c0 168 113 289 279 289c95 0 162 -42 201 -95c48 -63 63 -151 63 -237h-354c-4 18 -5 33 -6 56c0 22 1 40 6 61h192c-5 28 -15 46 -22 56c-18 24 -49 38 -82 38
c-57 0 -121 -36 -121 -159c0 -77 28 -168 125 -168c70 0 93 45 100 59z" />
    <glyph glyph-name="f" unicode="f" horiz-adv-x="354" 
d="M85 425h-75v117h75c-1 114 32 160 168 164h91v-117c-69 0 -74 0 -84 -4c-20 -9 -19 -33 -19 -43h103v-117h-103v-425h-156v425z" />
    <glyph glyph-name="g" unicode="g" horiz-adv-x="625" 
d="M387 211v-138c-35 -22 -69 -40 -126 -40c-152 0 -230 121 -230 259c0 159 101 265 229 265c69 0 108 -33 127 -51v-121c-12 14 -37 45 -86 45c-55 0 -119 -40 -119 -133c0 -82 50 -133 113 -133c36 0 69 18 92 47zM568 542v-468c-1 -62 -3 -90 -15 -124
c-43 -113 -174 -131 -256 -131c-32 0 -147 0 -204 81c-24 34 -30 71 -34 91h165c5 -15 14 -28 29 -37c15 -8 34 -13 58 -13c101 0 102 73 102 112v489h155z" />
    <glyph glyph-name="h" unicode="h" 
d="M210 0h-154v707h154v-707zM235 390v119c46 36 95 48 133 48c44 0 83 -14 110 -34c67 -49 68 -126 69 -171v-352h-154v308c1 42 2 117 -80 117c-41 0 -64 -22 -78 -35z" />
    <glyph glyph-name="i" unicode="i" horiz-adv-x="271" 
d="M212 0h-155v542h155v-542zM212 570h-155v137h155v-137z" />
    <glyph glyph-name="j" unicode="j" horiz-adv-x="271" 
d="M212 541v-505c0 -90 0 -142 -49 -178c-42 -32 -112 -32 -195 -31v130c71 0 90 13 89 62v522h155zM212 569h-155v137h155v-137z" />
    <glyph glyph-name="k" unicode="k" horiz-adv-x="583" 
d="M211 0h-155v706h155v-706zM239 212v175l138 155h200l-230 -226l246 -316h-197z" />
    <glyph glyph-name="l" unicode="l" horiz-adv-x="271" 
d="M212 0h-154v706h154v-706z" />
    <glyph glyph-name="m" unicode="m" horiz-adv-x="896" 
d="M212 1l-156 -1v541h156v-540zM238 398v117c33 30 73 41 115 41c67 0 124 -28 148 -91c18 26 63 91 165 91c54 0 96 -18 127 -48c47 -45 48 -94 49 -202v-305h-156v310c-1 34 -1 105 -78 105s-80 -70 -81 -107v-309h-156v282c0 54 -1 82 -18 105c-16 23 -44 28 -61 28
c-29 0 -43 -10 -54 -17z" />
    <glyph glyph-name="n" unicode="n" 
d="M212 0h-156v541h156v-541zM238 382v123c34 25 67 45 124 45c46 0 85 -14 114 -35c70 -50 72 -126 73 -182v-333h-157v326c0 25 -5 93 -80 93c-44 0 -65 -26 -74 -37z" />
    <glyph glyph-name="o" unicode="o" horiz-adv-x="625" 
d="M301 110v-127c-253 13 -270 231 -270 288c0 147 87 274 270 288v-124c-112 -15 -112 -132 -112 -163c0 -142 80 -157 112 -162zM327 -17v127c34 8 109 27 109 167c0 97 -40 150 -109 158v124c200 -11 267 -160 267 -282c0 -143 -86 -280 -267 -294z" />
    <glyph glyph-name="p" unicode="p" 
d="M211 -170h-155v712h155v-712zM237 403v121c31 25 71 35 111 35c137 0 225 -115 225 -286c0 -184 -109 -285 -232 -285c-53 0 -88 17 -104 25v130c12 -11 28 -26 67 -26c69 0 112 63 112 160c0 94 -37 155 -105 155c-43 0 -66 -21 -74 -29z" />
    <glyph glyph-name="q" unicode="q" 
d="M367 145v-133c-27 -11 -59 -25 -105 -25c-166 0 -230 155 -230 285c0 181 112 285 237 285c53 0 77 -15 98 -27v-126c-18 19 -40 27 -66 27c-39 0 -68 -22 -84 -44c-24 -34 -29 -77 -29 -118c0 -60 15 -110 52 -136c18 -13 39 -19 57 -19c28 0 50 11 70 31zM548 -171
h-155v712h155v-712z" />
    <glyph glyph-name="r" unicode="r" horiz-adv-x="375" 
d="M214 0h-157v541h157v-541zM241 374v135c7 10 33 44 107 44c12 0 20 -1 28 -2v-141c-10 2 -17 3 -33 3c-62 0 -85 -18 -102 -39z" />
    <glyph glyph-name="s" unicode="s" horiz-adv-x="562" 
d="M265 101v-116c-165 13 -225 84 -233 200l148 5c8 -47 18 -76 85 -89zM303 203l-101 25c-62 17 -153 42 -153 158c0 28 5 72 40 110c53 56 130 60 175 63v-113c-33 -2 -67 -11 -67 -45c0 -27 20 -33 67 -46l80 -18c69 -16 185 -41 185 -172c0 -68 -34 -123 -102 -154
c-54 -25 -112 -26 -135 -26v114c21 1 80 6 80 52c0 33 -34 43 -69 52zM514 375l-146 -8c-2 66 -55 74 -76 78v114c62 -3 122 -18 166 -59c42 -40 52 -84 56 -125z" />
    <glyph glyph-name="t" unicode="t" horiz-adv-x="354" 
d="M84 426h-75v116h75v98h155v-98h102v-116h-102v-225c-1 -66 2 -81 61 -81c11 0 17 0 41 2v-120c-56 -5 -73 -7 -103 -7c-146 0 -152 78 -154 151v280z" />
    <glyph glyph-name="u" unicode="u" 
d="M56 222v319h156v-312c1 -40 3 -63 18 -84c18 -24 47 -31 66 -31c38 0 60 21 71 30v-115c-32 -21 -70 -43 -129 -43c-40 0 -107 12 -145 66c-35 48 -36 113 -37 170zM548 0h-155v541h155v-541z" />
    <glyph glyph-name="v" unicode="v" horiz-adv-x="521" 
d="M188 0l-188 542h165l166 -542h-143zM348 34l-71 234l79 274h164z" />
    <glyph glyph-name="w" unicode="w" horiz-adv-x="771" 
d="M151 0l-158 542h158l141 -542h-141zM307 40l-59 235l71 267h136l140 -542h-118l-57 225c-20 77 -23 92 -33 148c-22 -102 -35 -154 -80 -333zM622 0l-69 268l69 274h159z" />
    <glyph glyph-name="x" unicode="x" horiz-adv-x="542" 
d="M163 0h-174l369 542h174zM162 302l-169 240h179l78 -112zM371 0l-89 130l89 129l180 -259h-180z" />
    <glyph glyph-name="y" unicode="y" horiz-adv-x="521" 
d="M174 52l-175 490h169l161 -573c-47 -115 -66 -132 -218 -135h-61v123h49c21 0 41 1 55 11c17 13 25 39 25 56c0 9 -2 18 -5 28zM344 14l-66 233l79 295h165z" />
    <glyph glyph-name="z" unicode="z" horiz-adv-x="542" 
d="M23 0v117l389 424h73v-119l-378 -422h-84zM261 416h-208v125h325zM502 0h-361l117 130h244v-130z" />
    <glyph glyph-name="braceleft" unicode="{" horiz-adv-x="354" 
d="M10 213l1 104c78 1 101 33 101 141v59c1 61 1 105 36 142c42 46 98 47 206 47v-102c-59 0 -97 -1 -106 -54c-3 -14 -3 -23 -3 -97c-1 -78 -2 -171 -111 -185v-6c19 -2 67 -9 94 -63c16 -32 16 -65 17 -134c0 -121 0 -139 109 -139v-102c-108 0 -164 1 -206 47
c-35 37 -35 80 -36 146v56c-1 100 -18 139 -102 140z" />
    <glyph glyph-name="braceright" unicode="}" horiz-adv-x="354" 
d="M354 317v-104c-78 -1 -101 -33 -101 -142v-58c-1 -61 -1 -105 -36 -142c-42 -46 -98 -47 -206 -47v102c59 0 97 1 106 54c2 14 3 23 3 97c1 78 2 171 110 185v6c-19 2 -67 9 -93 63c-16 32 -16 64 -17 134c0 121 0 139 -109 139v102c108 0 164 -1 206 -47
c35 -37 35 -80 36 -146v-56c1 -100 18 -139 101 -140z" />
    <glyph glyph-name="exclamdown" unicode="&#xa1;" horiz-adv-x="292" 
d="M198 0h-154v236l28 268h102l24 -268v-236zM198 558h-148v148h148v-148z" />
    <glyph glyph-name="cent" unicode="&#xa2;" horiz-adv-x="562" 
d="M239 138v-146c-137 22 -206 138 -206 277c0 193 122 266 206 284v-142c-23 -24 -46 -52 -46 -135c0 -66 12 -109 46 -138zM368 -9v142c15 13 36 34 37 76l152 -7c-5 -33 -8 -55 -28 -90c-41 -76 -105 -112 -161 -121zM553 355l-151 -8c-5 39 -8 43 -34 70v138
c157 -34 178 -160 185 -200zM342 -103h-77v755h77v-755z" />
    <glyph glyph-name="sterling" unicode="&#xa3;" horiz-adv-x="583" 
d="M138 74v-85c-15 2 -30 3 -49 11c-56 21 -72 68 -72 101c0 45 28 111 121 113v-85c-8 -2 -26 -5 -26 -27c0 -9 5 -24 26 -28zM173 278h-121v94h75c-19 35 -44 82 -44 144c0 95 73 184 221 189v-115c-17 -3 -85 -15 -85 -89c0 -33 13 -63 27 -88c3 -6 21 -34 25 -41h126
v-94h-93c6 -16 13 -34 13 -73c0 -32 -5 -48 -8 -61c22 -21 42 -29 62 -29c4 0 30 0 48 23c20 25 19 61 18 102h126c2 -62 7 -251 -164 -251c-65 0 -122 34 -139 46c-35 -31 -61 -40 -95 -44v82c10 3 26 8 26 28c0 11 -9 23 -26 27v83c14 -3 20 -4 37 -11c-1 13 -3 40 -29 78
zM548 468l-128 -30c-2 78 -17 130 -90 150v118c174 -12 215 -133 218 -238z" />
    <glyph glyph-name="yen" unicode="&#xa5;" horiz-adv-x="625" 
d="M628 703l-165 -306h106v-106h-163l-79 161l125 251h176zM232 264l-14 27h-166v106h109l-164 306h177l217 -439v-264h-159v140h-180v106h180v18zM417 140v106h152v-106h-152z" />
    <glyph glyph-name="florin" unicode="&#x192;" horiz-adv-x="396" 
d="M113 422h-75l13 117h75c4 42 10 92 52 127c40 34 92 36 135 37h91l-13 -117c-70 0 -75 0 -85 -4c-22 -9 -23 -35 -24 -43h104l-14 -117h-103l-50 -438c-14 -112 -47 -159 -188 -164h-91l13 117c70 0 75 0 86 4c21 9 22 33 23 43z" />
    <glyph glyph-name="quotesingle" unicode="'" horiz-adv-x="250" 
d="M195 669l-53 -261h-31l-55 250c-2 10 -2 22 -2 23c0 50 44 68 75 68c25 0 68 -13 68 -64c0 -4 0 -9 -2 -16z" />
    <glyph glyph-name="quotedblleft" unicode="&#x201c;" horiz-adv-x="458" 
d="M204 398h-152v119c2 53 7 166 152 199v-56c-72 -37 -77 -87 -79 -111h79v-151zM405 398h-152v123c3 67 6 151 157 197v-57c-74 -36 -80 -80 -84 -112h79v-151z" />
    <glyph glyph-name="guillemotleft" unicode="&#xab;" horiz-adv-x="437" 
d="M40 220v125l154 136v-129l-82 -70l82 -68v-123zM230 222v122l155 137v-124l-82 -74l82 -70v-121z" />
    <glyph glyph-name="guilsinglleft" unicode="&#x2039;" horiz-adv-x="250" 
d="M42 222v122l155 137v-124l-82 -74l82 -70v-121z" />
    <glyph glyph-name="guilsinglright" unicode="&#x203a;" horiz-adv-x="250" 
d="M52 85v126l82 72l-82 69v123l156 -132v-122z" />
    <glyph glyph-name="fi" unicode="&#xfb01;" horiz-adv-x="625" 
d="M85 425h-75v117h75c-1 115 32 161 168 165h91v-118c-69 0 -74 0 -84 -4c-20 -9 -19 -33 -19 -43h103v-117h-103v-425h-156v425zM566 0h-155v542h155v-542zM566 570h-155v137h155v-137z" />
    <glyph glyph-name="fl" unicode="&#xfb02;" horiz-adv-x="625" 
d="M85 425h-75v117h75c-1 114 32 160 168 164h92v-117c-70 0 -75 0 -85 -4c-20 -9 -19 -33 -19 -43h104v-117h-104v-425h-156v425zM566 0h-154v706h154v-706z" />
    <glyph glyph-name="endash" unicode="&#x2013;" horiz-adv-x="562" 
d="M521 258h-483v121h483v-121z" />
    <glyph glyph-name="periodcentered" unicode="&#xb7;" horiz-adv-x="250" 
d="M198 245h-148v149h148v-149z" />
    <glyph glyph-name="bullet" unicode="&#x2022;" horiz-adv-x="333" 
d="M309 353c0 -79 -55 -143 -139 -143c-90 0 -146 71 -146 142c0 76 61 143 145 143c76 0 140 -57 140 -142z" />
    <glyph glyph-name="quotesinglbase" unicode="&#x201a;" horiz-adv-x="250" 
d="M45 -167v56c37 23 80 50 79 111h-79v151h153v-132c-2 -37 -5 -73 -33 -112c-37 -49 -94 -67 -120 -74z" />
    <glyph glyph-name="quotedblbase" unicode="&#x201e;" horiz-adv-x="458" 
d="M204 151v-117c-1 -65 -2 -156 -157 -202v57c73 35 80 78 84 111h-79v151h152zM252 -167v56c37 23 80 50 79 111h-79v151h153v-132c-2 -37 -5 -73 -33 -112c-37 -49 -94 -67 -120 -74z" />
    <glyph glyph-name="quotedblright" unicode="&#x201d;" horiz-adv-x="458" 
d="M204 706v-101c-3 -93 -6 -169 -157 -218v58c13 6 29 14 48 32c33 32 34 63 35 79h-78v150h152zM405 706v-114c-2 -65 -5 -164 -151 -203v56c72 38 76 88 78 111h-78v150h151z" />
    <glyph glyph-name="guillemotright" unicode="&#xbb;" horiz-adv-x="437" 
d="M52 85v126l82 72l-82 69v123l156 -132v-122zM243 85v127l81 72l-81 67v124l154 -130v-126z" />
    <glyph glyph-name="ellipsis" unicode="&#x2026;" horiz-adv-x="1000" 
d="M241 0h-148v149h148v-149zM574 0h-148v149h148v-149zM907 0h-148v149h148v-149z" />
    <glyph glyph-name="questiondown" unicode="&#xbf;" horiz-adv-x="562" 
d="M276 108v-125c-19 1 -77 5 -127 31c-53 28 -105 89 -105 182c0 60 21 108 78 160c18 16 37 31 55 48c30 27 37 48 37 95h141c-2 -76 -3 -120 -65 -174c-18 -15 -38 -28 -56 -44c-29 -25 -43 -50 -43 -81c0 -20 7 -41 18 -56c16 -22 39 -31 67 -36zM355 561h-148v146h148
v-146zM408 226h144c-8 -91 -20 -229 -250 -242v123c18 1 70 6 93 56c0 2 14 31 13 63z" />
    <glyph glyph-name="grave" unicode="`" horiz-adv-x="292" 
d="M158 605l-123 148h172l49 -148h-98z" />
    <glyph glyph-name="acute" unicode="&#xb4;" horiz-adv-x="292" 
d="M139 606h-98l45 149h164z" />
    <glyph glyph-name="circumflex" unicode="&#x2c6;" horiz-adv-x="292" 
d="M97 601h-115l97 152h142l89 -152h-112l-50 85z" />
    <glyph glyph-name="tilde" unicode="&#x2dc;" horiz-adv-x="292" 
d="M68 603h-71c-2 27 -2 30 -2 43c0 25 2 52 20 77c6 7 23 29 60 29c6 0 12 -1 18 -2c13 -2 74 -30 88 -35c5 -2 11 -4 18 -4c29 0 30 29 30 40h66c1 -10 2 -23 2 -44c0 -41 -5 -105 -69 -105c-13 0 -26 3 -35 6c-16 6 -83 38 -98 38c-27 0 -27 -28 -27 -43z" />
    <glyph glyph-name="macron" unicode="&#xaf;" horiz-adv-x="292" 
d="M-32 604v98h357v-98h-357z" />
    <glyph glyph-name="breve" unicode="&#x2d8;" horiz-adv-x="292" 
d="M209 754h96c-4 -24 -10 -62 -32 -94s-60 -58 -126 -58c-150 0 -157 116 -160 152h99c2 -8 4 -24 13 -38s24 -26 49 -26c47 0 57 48 61 64z" />
    <glyph glyph-name="dotaccent" unicode="&#x2d9;" horiz-adv-x="292" 
d="M76 604v125h139v-125h-139z" />
    <glyph glyph-name="dieresis" unicode="&#xa8;" horiz-adv-x="292" 
d="M-32 604v125h139v-125h-139zM188 604v125h137v-125h-137z" />
    <glyph glyph-name="ring" unicode="&#x2da;" horiz-adv-x="292" 
d="M48 669c-5 51 30 105 98 105c65 0 97 -50 97 -97c0 -64 -51 -96 -98 -96c-59 0 -93 43 -97 88zM108 676c0 -23 19 -36 37 -36c19 0 38 15 38 38c0 17 -12 38 -38 38c-21 0 -37 -18 -37 -40z" />
    <glyph glyph-name="cedilla" unicode="&#xb8;" horiz-adv-x="292" 
d="M152 -237h-79l64 84h-41v105h122v-105z" />
    <glyph glyph-name="hungarumlaut" unicode="&#x2dd;" horiz-adv-x="292" 
d="M43 606h-99l46 149h164zM238 606h-98l45 149h164z" />
    <glyph glyph-name="ogonek" unicode="&#x2db;" horiz-adv-x="292" 
d="M111 0h103c-3 -4 -46 -61 -46 -86c0 -26 27 -28 38 -28c4 0 26 1 31 1v-103c-17 -1 -31 -2 -47 -2c-33 0 -135 0 -135 92c0 51 38 101 56 126z" />
    <glyph glyph-name="caron" unicode="&#x2c7;" horiz-adv-x="292" 
d="M71 602l-88 152h113l48 -84l51 84h114l-96 -152h-142z" />
    <glyph glyph-name="emdash" unicode="&#x2014;" horiz-adv-x="667" 
d="M625 259h-587v119h587v-119z" />
    <glyph glyph-name="AE" unicode="&#xc6;" horiz-adv-x="958" 
d="M161 0h-168l312 706h259v-706h-156v152h-156l53 123h103v319zM590 0v131h332v-131h-332zM922 572h-332v134h332v-134zM895 307h-305v128h305v-128z" />
    <glyph glyph-name="ordfeminine" unicode="&#xaa;" horiz-adv-x="375" 
d="M204 452v-84c-19 -6 -37 -12 -64 -12c-71 0 -123 45 -123 114c0 62 40 84 51 90c28 16 64 21 136 33v-77c-34 -8 -56 -14 -64 -18c-11 -7 -14 -15 -14 -25c0 -19 15 -30 39 -30c16 0 28 4 39 9zM136 595h-101c3 47 19 79 46 99c26 21 63 29 105 29
c148 0 151 -91 152 -139v-145c1 -37 4 -52 15 -71h-114c-6 14 -8 23 -9 55v171c0 16 1 43 -44 43c-49 0 -50 -28 -50 -42z" />
    <glyph glyph-name="Lslash" unicode="&#x141;" horiz-adv-x="562" 
d="M216 0h-160v169l-58 -42v144l58 45v391h160v-707zM551 0h-310v133h310v-133zM242 301v145l168 123v-147z" />
    <glyph glyph-name="Oslash" unicode="&#xd8;" horiz-adv-x="771" 
d="M60 12l65 81c-29 37 -91 117 -91 260c0 163 83 357 338 370v-135c-79 -5 -170 -67 -170 -240c0 -60 11 -95 27 -129l269 327c-29 25 -49 37 -100 42v135c111 -4 171 -46 194 -62l70 85l51 -42l-72 -87c26 -30 93 -107 93 -265c0 -224 -146 -361 -336 -368v136
c97 8 170 81 170 230c0 82 -19 123 -28 143l-271 -330c19 -18 45 -38 103 -43v-136c-110 4 -160 37 -199 63l-63 -75z" />
    <glyph glyph-name="OE" unicode="&#x152;" horiz-adv-x="1062" 
d="M371 -14v142c93 -2 134 66 145 86v291c-10 16 -20 33 -46 52c-31 22 -62 30 -99 29v138c51 -3 90 -10 145 -45v28h158v-707h-158v34c-59 -33 -86 -43 -145 -48zM344 129v-145c-28 0 -134 0 -215 84c-73 76 -94 185 -94 291c0 133 51 353 309 365v-141
c-16 -4 -62 -14 -100 -67c-37 -53 -41 -118 -41 -165c0 -59 8 -108 41 -155c26 -37 53 -54 100 -67zM1036 0h-336v134h336v-134zM1026 578h-326v129h326v-129zM1002 308h-302v127h302v-127z" />
    <glyph glyph-name="ordmasculine" unicode="&#xba;" horiz-adv-x="396" 
d="M185 723v-89c-36 -9 -58 -34 -58 -94c0 -46 13 -82 58 -93v-90c-163 12 -167 157 -167 183c0 110 74 176 167 183zM211 357v90c18 6 57 18 57 96c0 23 -1 80 -57 91v89c104 -10 167 -77 167 -180c0 -79 -43 -174 -167 -186z" />
    <glyph glyph-name="ae" unicode="&#xe6;" horiz-adv-x="958" 
d="M361 227h-15c-100 0 -163 -3 -163 -60c0 -38 28 -64 81 -64c72 0 96 39 109 60c9 -30 22 -66 60 -112c-38 -30 -89 -67 -196 -67c-125 0 -209 62 -209 183c0 172 164 173 333 173v-113zM196 371l-143 1c8 51 29 185 244 185c67 0 134 -15 185 -57c53 42 112 59 181 59
c27 0 130 0 203 -96c63 -83 63 -185 64 -235h-361c-3 15 -5 27 -5 59c0 30 2 44 5 58h198c-11 61 -47 94 -110 94c-120 0 -120 -129 -120 -159c0 -96 36 -166 129 -166c39 0 83 16 101 56l157 -10c-19 -43 -74 -174 -264 -174c-96 0 -209 38 -255 160c-19 52 -19 88 -19 158
c0 77 0 133 -94 133c-77 0 -89 -41 -96 -66z" />
    <glyph glyph-name="dotlessi" unicode="&#x131;" horiz-adv-x="271" 
d="M212 0h-154v542h154v-542z" />
    <glyph glyph-name="lslash" unicode="&#x142;" horiz-adv-x="271" 
d="M58 0v210l-60 -42v144l60 43v351h154v-241l57 41v-146l-57 -41v-319h-154z" />
    <glyph glyph-name="oslash" unicode="&#xf8;" horiz-adv-x="625" 
d="M32 8l63 72c-24 30 -66 82 -66 188c0 180 115 288 269 293v-122c-12 -2 -26 -4 -43 -12c-70 -34 -75 -123 -75 -152c0 -11 1 -52 13 -85l198 224c-22 15 -36 22 -67 25v122c57 -2 98 -13 156 -47l62 70l45 -40l-61 -71c23 -32 68 -95 68 -199c0 -127 -73 -274 -270 -288
v124c19 3 37 8 53 19c42 26 65 82 65 144c0 39 -6 67 -15 88l-197 -222c20 -18 42 -24 68 -29v-124c-70 3 -113 20 -159 51l-60 -70z" />
    <glyph glyph-name="oe" unicode="&#x153;" horiz-adv-x="1000" 
d="M297 114v-129c-173 9 -265 136 -265 284c0 170 106 277 265 288v-124c-13 -3 -35 -7 -57 -24c-41 -31 -50 -91 -50 -134c0 -62 18 -102 37 -124c23 -29 51 -34 70 -37zM323 -14v127c31 7 105 24 105 163c0 28 -2 75 -28 112c-26 35 -56 41 -77 45v124
c96 -6 151 -47 180 -71c33 31 89 74 194 74c56 0 108 -12 157 -46c110 -78 115 -217 117 -288h-362c-3 15 -7 29 -7 60c0 30 4 43 7 58h198c-8 61 -54 95 -110 95c-90 0 -120 -78 -120 -157c0 -56 14 -171 128 -171c43 0 80 19 102 56l157 -8c-40 -103 -122 -175 -262 -175
c-125 0 -179 55 -199 76c-78 -63 -145 -70 -180 -74z" />
    <glyph glyph-name="germandbls" unicode="&#xdf;" 
d="M210 0h-153v497c2 89 11 212 225 227v-121c-67 -13 -74 -53 -72 -137v-466zM308 603v121c26 0 74 -1 123 -24c65 -29 104 -86 104 -158c0 -49 -25 -106 -84 -136c79 -37 119 -105 119 -192c0 -54 -19 -143 -84 -190c-31 -22 -76 -38 -139 -38c-41 0 -58 5 -97 14v109
c12 -1 29 -4 55 -4c24 0 49 2 70 18c33 23 46 70 46 107c0 115 -97 115 -118 115c-9 0 -29 0 -53 -2v105c12 -1 23 -1 35 -1c31 0 52 2 72 16c18 13 30 35 30 62c0 13 -3 66 -79 78z" />
    <glyph glyph-name="Igrave" unicode="&#xcc;" horiz-adv-x="271" 
d="M214 0h-159v706h159v-706zM97 770l-91 125h163l22 -125h-94z" />
    <glyph glyph-name="threesuperior" unicode="&#xb3;" horiz-adv-x="375" 
d="M173 334v-86c-138 13 -141 113 -143 165l96 5c-3 -25 2 -43 4 -49c10 -30 29 -33 43 -35zM134 540l-95 6c1 29 3 55 14 79c23 52 76 72 120 74v-84c-37 -9 -39 -42 -39 -75zM200 248v86c12 3 17 4 23 9c1 1 22 18 22 47c0 24 -13 55 -62 55c-10 0 -21 -1 -35 -3v87
c20 -3 23 -3 30 -3c55 0 55 41 55 45c0 30 -21 39 -33 44v84c128 -10 128 -107 128 -121c0 -11 0 -58 -44 -86c57 -25 62 -81 62 -102c0 -61 -42 -134 -146 -142z" />
    <glyph glyph-name="Oacute" unicode="&#xd3;" horiz-adv-x="771" 
d="M370 123v-136c-228 4 -337 188 -337 370c0 179 97 358 337 369v-134c-135 -17 -170 -138 -170 -234c0 -30 1 -112 54 -177c33 -41 70 -53 116 -58zM397 -13v136c46 6 85 17 119 59c45 54 52 118 52 174c0 142 -62 222 -171 236v134c286 -19 337 -246 337 -368
c0 -209 -127 -360 -337 -371zM419 771h-96l26 124h164z" />
    <glyph glyph-name="Idieresis" unicode="&#xcf;" horiz-adv-x="271" 
d="M214 0h-159v706h159v-706zM80 770h-130v125h130v-125zM315 770h-130v125h130v-125z" />
    <glyph glyph-name="Ccedilla" unicode="&#xc7;" horiz-adv-x="708" 
d="M372 119v-134c-41 2 -89 5 -148 32c-97 46 -193 158 -193 337c0 168 91 356 341 365v-131c-154 -15 -170 -160 -170 -243c0 -161 87 -220 170 -226zM355 -237h-79l64 84h-41v105h122v-105zM690 492l-161 -12c-6 33 -31 99 -130 108v131c69 -3 113 -18 138 -29
c123 -56 145 -161 153 -198zM534 247l167 -10c-6 -33 -21 -116 -92 -178c-70 -62 -152 -69 -210 -74v134c106 14 131 82 135 128z" />
    <glyph glyph-name="Ugrave" unicode="&#xd9;" horiz-adv-x="667" 
d="M48 257v449h160v-432c0 -70 2 -146 111 -155v-136c-37 0 -95 4 -150 30c-116 53 -119 155 -121 244zM616 706v-427c1 -117 2 -284 -271 -296v136c110 11 111 81 111 160v427h160zM295 770l-91 125h163l22 -125h-94z" />
    <glyph glyph-name="thorn" unicode="&#xfe;" 
d="M211 -170h-155v877h155v-877zM237 403v121c31 25 71 35 111 35c137 0 225 -115 225 -286c0 -184 -109 -285 -232 -285c-53 0 -88 17 -104 25v130c12 -11 28 -26 67 -26c69 0 112 63 112 160c0 94 -37 155 -105 155c-43 0 -66 -21 -74 -29z" />
    <glyph glyph-name="Udieresis" unicode="&#xdc;" horiz-adv-x="667" 
d="M48 257v449h160v-432c0 -70 2 -146 111 -155v-136c-37 0 -95 4 -150 30c-116 53 -119 155 -121 244zM279 770h-130v125h130v-125zM616 706v-427c1 -117 2 -284 -271 -296v136c110 11 111 81 111 160v427h160zM514 770h-130v125h130v-125z" />
    <glyph glyph-name="Odieresis" unicode="&#xd6;" horiz-adv-x="771" 
d="M370 123v-136c-228 4 -337 188 -337 370c0 179 97 358 337 369v-134c-135 -17 -170 -138 -170 -234c0 -30 1 -112 54 -177c33 -41 70 -53 116 -58zM397 -13v136c46 6 85 17 119 59c45 54 52 118 52 174c0 142 -62 222 -171 236v134c286 -19 337 -246 337 -368
c0 -209 -127 -360 -337 -371zM330 771h-130v125h130v-125zM565 771h-130v125h130v-125z" />
    <glyph glyph-name="Egrave" unicode="&#xc8;" 
d="M215 0h-159v706h159v-706zM579 0h-337v131h337v-131zM572 577h-330v129h330v-129zM546 309h-304v127h304v-127zM264 770l-91 125h163l22 -125h-94z" />
    <glyph glyph-name="Acircumflex" unicode="&#xc2;" horiz-adv-x="667" 
d="M173 0h-179l243 706h181l250 -706h-179l-46 150h-198l38 129h121l-51 168c-12 49 -14 57 -24 104c-9 -46 -11 -55 -23 -100zM284 769h-117l87 125h160l85 -125h-114l-52 68z" />
    <glyph glyph-name="twosuperior" unicode="&#xb2;" horiz-adv-x="375" 
d="M339 253h-305v89h305v-89zM133 522l-93 5c0 29 0 56 11 88c27 60 85 83 123 83v-92c-38 -8 -42 -49 -42 -66c0 -5 0 -7 1 -18zM211 368h-137c4 4 9 7 12 10c108 84 148 132 148 179c0 23 -14 45 -33 49v92c35 -1 130 -22 130 -136c0 -81 -49 -134 -120 -194z" />
    <glyph glyph-name="Ntilde" unicode="&#xd1;" horiz-adv-x="688" 
d="M216 0h-159v659l152 -255zM481 0l-424 706h153l421 -706h-150zM479 308l-6 398h158v-654zM267 772h-76c3 39 9 119 86 119c21 0 44 -6 88 -16c20 -5 27 -6 33 -6c24 0 26 16 27 24h79c-5 -84 -36 -123 -95 -123c-13 0 -25 2 -38 5c-12 2 -66 18 -79 18
c-18 0 -22 -13 -25 -21z" />
    <glyph glyph-name="ccedilla" unicode="&#xe7;" horiz-adv-x="562" 
d="M283 -237h-80l64 84h-41v105h122v-105zM291 117v-132c-194 7 -258 152 -258 284c0 204 135 285 258 290v-125c-88 -15 -98 -107 -98 -161c0 -23 1 -78 30 -115c23 -31 51 -37 68 -41zM318 -15v132c57 9 76 39 87 92l152 -7c-13 -99 -78 -207 -239 -217zM553 355l-151 -7
c-12 64 -45 77 -84 86v125c85 -1 135 -35 162 -59c58 -52 67 -109 73 -145z" />
    <glyph glyph-name="Ograve" unicode="&#xd2;" horiz-adv-x="771" 
d="M370 123v-136c-228 4 -337 188 -337 370c0 179 97 358 337 369v-134c-135 -17 -170 -138 -170 -234c0 -30 1 -112 54 -177c33 -41 70 -53 116 -58zM397 -13v136c46 6 85 17 119 59c45 54 52 118 52 174c0 142 -62 222 -171 236v134c286 -19 337 -246 337 -368
c0 -209 -127 -360 -337 -371zM347 770l-91 125h163l22 -125h-94z" />
    <glyph glyph-name="onesuperior" unicode="&#xb9;" horiz-adv-x="375" 
d="M55 543v77c20 -1 44 -2 73 9v-86h-73zM154 253v399c2 3 3 6 5 9c5 11 6 18 8 32h88v-440h-101z" />
    <glyph glyph-name="Adieresis" unicode="&#xc4;" horiz-adv-x="667" 
d="M173 0h-179l243 706h181l250 -706h-179l-46 150h-198l38 129h121l-51 168c-12 49 -14 57 -24 104c-9 -46 -11 -55 -23 -100zM276 772h-130v125h130v-125zM511 772h-130v125h130v-125z" />
    <glyph glyph-name="Agrave" unicode="&#xc0;" horiz-adv-x="667" 
d="M173 0h-179l243 706h181l250 -706h-179l-46 150h-198l38 129h121l-51 168c-12 49 -14 57 -24 104c-9 -46 -11 -55 -23 -100zM295 770l-91 125h163l22 -125h-94z" />
    <glyph glyph-name="trademark" unicode="&#x2122;" horiz-adv-x="687" 
d="M655 706v-332h-69l3 191c0 33 3 56 4 68c-4 -14 -9 -34 -15 -55l-62 -204h-63l-64 204c-2 8 -13 45 -15 53c3 -18 4 -39 5 -66l4 -191h-69v332h92l80 -251l76 251h93zM184 648v-274h-71v274h-105v58h278v-58h-102z" />
    <glyph glyph-name="Icircumflex" unicode="&#xce;" horiz-adv-x="271" 
d="M214 0h-159v706h159v-706zM86 769h-117l87 125h160l85 -125h-114l-52 68z" />
    <glyph glyph-name="Eacute" unicode="&#xc9;" 
d="M215 0h-159v706h159v-706zM579 0h-337v131h337v-131zM572 577h-330v129h330v-129zM546 309h-304v127h304v-127zM336 771h-96l26 124h164z" />
    <glyph glyph-name="registered" unicode="&#xae;" horiz-adv-x="833" 
d="M258 583h155c46 -1 77 -1 106 -11c55 -18 77 -67 77 -108c0 -79 -70 -101 -86 -107c27 -14 47 -25 57 -90c9 -56 15 -97 37 -138h-109c-14 29 -19 63 -24 99c-14 93 -19 98 -118 98v-197h-95v454zM353 510v-108h57c35 0 91 -1 91 56c0 52 -49 52 -77 52h-71zM773 351
c-1 -197 -156 -354 -357 -354c-185 0 -355 145 -355 356c0 205 163 356 355 356c207 0 358 -163 357 -358zM741 352c1 177 -138 325 -323 325c-183 0 -325 -146 -325 -324c0 -182 145 -324 324 -324c183 0 323 143 324 323z" />
    <glyph glyph-name="Otilde" unicode="&#xd5;" horiz-adv-x="771" 
d="M370 123v-136c-228 4 -337 188 -337 370c0 179 97 358 337 369v-134c-135 -17 -170 -138 -170 -234c0 -30 1 -112 54 -177c33 -41 70 -53 116 -58zM397 -13v136c46 6 85 17 119 59c45 54 52 118 52 174c0 142 -62 222 -171 236v134c286 -19 337 -246 337 -368
c0 -209 -127 -360 -337 -371zM308 772h-76c3 39 9 119 86 119c21 0 44 -6 88 -16c20 -5 27 -6 33 -6c24 0 26 16 27 24h79c-5 -84 -36 -123 -95 -123c-13 0 -25 2 -38 5c-12 2 -66 18 -79 18c-18 0 -22 -13 -25 -21z" />
    <glyph glyph-name="eth" unicode="&#xf0;" horiz-adv-x="625" 
d="M140 630l128 28c-29 25 -32 27 -50 41l147 37c7 -7 42 -39 50 -46l99 21l30 -66l-74 -16c63 -79 125 -182 125 -329c0 -81 -14 -162 -75 -228c-70 -76 -160 -85 -193 -87v125c109 19 109 136 109 171c0 183 -78 278 -109 316l-158 -34zM301 109v-126
c-244 13 -270 215 -270 289c0 176 125 285 269 285c10 0 16 -1 28 -3c31 -49 44 -76 67 -147c-20 13 -45 29 -80 29c-34 0 -70 -15 -93 -44c-31 -38 -33 -90 -33 -121c0 -141 80 -156 112 -162z" />
    <glyph glyph-name="Ucircumflex" unicode="&#xdb;" horiz-adv-x="667" 
d="M48 257v449h160v-432c0 -70 2 -146 111 -155v-136c-37 0 -95 4 -150 30c-116 53 -119 155 -121 244zM616 706v-427c1 -117 2 -284 -271 -296v136c110 11 111 81 111 160v427h160zM284 769h-117l87 125h160l85 -125h-114l-52 68z" />
    <glyph glyph-name="Atilde" unicode="&#xc3;" horiz-adv-x="667" 
d="M173 0h-179l243 706h181l250 -706h-179l-46 150h-198l38 129h121l-51 168c-12 49 -14 57 -24 104c-9 -46 -11 -55 -23 -100zM256 772h-76c3 39 9 119 86 119c21 0 44 -6 88 -16c20 -5 27 -6 33 -6c24 0 26 16 27 24h79c-5 -84 -36 -123 -95 -123c-13 0 -25 2 -38 5
c-12 2 -66 18 -79 18c-18 0 -22 -13 -25 -21z" />
    <glyph glyph-name="Ecircumflex" unicode="&#xca;" 
d="M215 0h-159v706h159v-706zM579 0h-337v131h337v-131zM572 577h-330v129h330v-129zM546 309h-304v127h304v-127zM253 769h-117l87 125h160l85 -125h-114l-52 68z" />
    <glyph glyph-name="Ocircumflex" unicode="&#xd4;" horiz-adv-x="771" 
d="M370 123v-136c-228 4 -337 188 -337 370c0 179 97 358 337 369v-134c-135 -17 -170 -138 -170 -234c0 -30 1 -112 54 -177c33 -41 70 -53 116 -58zM397 -13v136c46 6 85 17 119 59c45 54 52 118 52 174c0 142 -62 222 -171 236v134c286 -19 337 -246 337 -368
c0 -209 -127 -360 -337 -371zM336 769h-117l87 125h160l85 -125h-114l-52 68z" />
    <glyph glyph-name="copyright" unicode="&#xa9;" horiz-adv-x="833" 
d="M773 352c-1 -197 -155 -355 -357 -355c-186 0 -355 145 -355 356c0 205 163 356 355 356c207 0 358 -163 357 -357zM741 352c1 178 -138 325 -323 325c-183 0 -325 -146 -325 -324c0 -182 145 -324 323 -324c184 0 324 144 325 323zM545 264l72 -65
c-53 -59 -116 -87 -193 -87c-149 0 -243 105 -243 241c0 137 96 245 243 245c110 0 166 -59 193 -87l-72 -68c-20 21 -56 58 -121 58c-89 0 -143 -66 -143 -146c0 -88 61 -146 144 -146c68 0 103 37 120 55z" />
    <glyph glyph-name="Iacute" unicode="&#xcd;" horiz-adv-x="271" 
d="M214 0h-159v706h159v-706zM169 771h-96l26 124h164z" />
    <glyph glyph-name="Aacute" unicode="&#xc1;" horiz-adv-x="667" 
d="M173 0h-179l243 706h181l250 -706h-179l-46 150h-198l38 129h121l-51 168c-12 49 -14 57 -24 104c-9 -46 -11 -55 -23 -100zM367 771h-96l26 124h164z" />
    <glyph glyph-name="Thorn" unicode="&#xde;" horiz-adv-x="625" 
d="M216 0h-160v707h160v-707zM322 129h-80v131h51c35 0 62 -1 88 8c61 20 64 85 64 96c0 9 0 49 -34 76c-28 21 -54 22 -101 23h-68v129h76c72 -1 145 -2 203 -45c43 -32 82 -93 82 -189c0 -73 -30 -145 -89 -187c-53 -37 -106 -39 -192 -42z" />
    <glyph glyph-name="Uacute" unicode="&#xda;" horiz-adv-x="667" 
d="M48 257v449h160v-432c0 -70 2 -146 111 -155v-136c-37 0 -95 4 -150 30c-116 53 -119 155 -121 244zM616 706v-427c1 -117 2 -284 -271 -296v136c110 11 111 81 111 160v427h160zM367 771h-96l26 124h164z" />
    <glyph glyph-name="Aring" unicode="&#xc5;" horiz-adv-x="667" 
d="M173 0h-179l243 706h181l250 -706h-179l-46 150h-198l38 129h121l-51 168c-12 49 -14 57 -24 104c-9 -46 -11 -55 -23 -100zM227 836c-7 60 38 113 102 113c56 0 103 -45 103 -102c0 -58 -48 -102 -103 -102c-62 0 -97 48 -102 91zM286 843c2 -23 21 -40 44 -40
c21 0 42 19 42 44s-20 43 -43 43c-29 0 -46 -24 -43 -47z" />
    <glyph glyph-name="Zcaron" unicode="&#x17d;" horiz-adv-x="646" 
d="M118 0h-97v118l501 589h90v-124zM42 574v133h444l-112 -133h-332zM619 0h-466l109 130h357v-130zM242 769l-85 126h115l51 -69l50 69h116l-87 -126h-160z" />
    <glyph glyph-name="Eth" unicode="&#xd0;" horiz-adv-x="688" 
d="M215 0h-160v287h-55v121h55v299h160v-707zM308 0h-67v131c71 -1 110 1 143 13c80 28 101 125 101 215c0 71 -16 165 -93 199c-35 15 -76 16 -151 17v132h77c135 -1 211 -41 268 -120c55 -79 68 -166 68 -234c0 -99 -30 -197 -99 -268c-77 -78 -170 -82 -247 -85zM241 287
v121h154v-121h-154z" />
    <glyph glyph-name="Yacute" unicode="&#xdd;" horiz-adv-x="625" 
d="M232 264l-237 442h177l219 -442v-264h-159v264zM407 291l-80 161l127 254h176zM346 771h-96l26 124h164z" />
    <glyph glyph-name="Ydieresis" unicode="&#x178;" horiz-adv-x="625" 
d="M232 264l-237 442h177l219 -442v-264h-159v264zM407 291l-80 161l127 254h176zM257 770h-130v125h130v-125zM492 770h-130v125h130v-125z" />
    <glyph glyph-name="Edieresis" unicode="&#xcb;" 
d="M215 0h-159v706h159v-706zM579 0h-337v131h337v-131zM572 577h-330v129h330v-129zM247 770h-130v125h130v-125zM546 309h-304v127h304v-127zM482 770h-130v125h130v-125z" />
    <glyph glyph-name="mu" unicode="&#xb5;" 
d="M212 1v-172h-156v712h156v-312c1 -40 3 -63 18 -84c18 -24 47 -31 66 -31c38 0 60 21 71 30v-115c-23 -18 -56 -42 -101 -42c-22 0 -36 6 -54 14zM548 0h-155v541h155v-541z" />
    <glyph glyph-name="Scaron" unicode="&#x160;" horiz-adv-x="667" 
d="M385 272l-142 33c-63 17 -194 53 -194 206c0 125 90 168 114 180c36 17 78 29 158 31v-128c-29 0 -111 -2 -111 -70c0 -47 38 -59 84 -71l108 -25c96 -24 224 -57 224 -217c0 -156 -122 -225 -277 -228v133c17 1 115 4 115 80c0 53 -47 67 -79 76zM321 115l1 -133
c-152 0 -287 57 -295 241l158 9c4 -48 16 -106 136 -117zM615 499l-157 -12c-5 63 -29 96 -110 106v129c61 -1 147 -15 203 -71c51 -51 60 -120 64 -152zM252 769l-85 126h115l51 -69l50 69h116l-87 -126h-160z" />
    <glyph glyph-name="aacute" unicode="&#xe1;" horiz-adv-x="583" 
d="M346 351v-106c-14 -4 -82 -17 -98 -21c-43 -12 -66 -29 -66 -63s27 -58 72 -58c20 0 57 4 92 30c-2 -18 -3 -35 -3 -52c0 -9 3 -52 3 -61c-47 -38 -118 -38 -133 -38c-102 0 -187 63 -187 174c0 128 107 154 158 165c22 5 136 24 162 30zM198 367h-142
c8 124 91 188 232 188c58 0 119 -8 166 -42c67 -47 69 -113 71 -173v-233c0 -51 2 -74 20 -106h-164c-8 19 -11 32 -12 80v276c1 29 2 78 -81 78c-17 0 -88 -2 -90 -68zM327 606h-98l45 149h164z" />
    <glyph glyph-name="acircumflex" unicode="&#xe2;" horiz-adv-x="583" 
d="M346 351v-106c-14 -4 -82 -17 -98 -21c-43 -12 -66 -29 -66 -63s27 -58 72 -58c20 0 57 4 92 30c-2 -18 -3 -35 -3 -52c0 -9 3 -52 3 -61c-47 -38 -118 -38 -133 -38c-102 0 -187 63 -187 174c0 128 107 154 158 165c22 5 136 24 162 30zM198 367h-142
c8 124 91 188 232 188c58 0 119 -8 166 -42c67 -47 69 -113 71 -173v-233c0 -51 2 -74 20 -106h-164c-8 19 -11 32 -12 80v276c1 29 2 78 -81 78c-17 0 -88 -2 -90 -68zM243 601h-115l97 152h142l89 -152h-112l-50 85z" />
    <glyph glyph-name="adieresis" unicode="&#xe4;" horiz-adv-x="583" 
d="M346 351v-106c-14 -4 -82 -17 -98 -21c-43 -12 -66 -29 -66 -63s27 -58 72 -58c20 0 57 4 92 30c-2 -18 -3 -35 -3 -52c0 -9 3 -52 3 -61c-47 -38 -118 -38 -133 -38c-102 0 -187 63 -187 174c0 128 107 154 158 165c22 5 136 24 162 30zM198 367h-142
c8 124 91 188 232 188c58 0 119 -8 166 -42c67 -47 69 -113 71 -173v-233c0 -51 2 -74 20 -106h-164c-8 19 -11 32 -12 80v276c1 29 2 78 -81 78c-17 0 -88 -2 -90 -68zM140 608v125h139v-125h-139zM360 608v125h137v-125h-137z" />
    <glyph glyph-name="agrave" unicode="&#xe0;" horiz-adv-x="583" 
d="M346 351v-106c-14 -4 -82 -17 -98 -21c-43 -12 -66 -29 -66 -63s27 -58 72 -58c20 0 57 4 92 30c-2 -18 -3 -35 -3 -52c0 -9 3 -52 3 -61c-47 -38 -118 -38 -133 -38c-102 0 -187 63 -187 174c0 128 107 154 158 165c22 5 136 24 162 30zM198 367h-142
c8 124 91 188 232 188c58 0 119 -8 166 -42c67 -47 69 -113 71 -173v-233c0 -51 2 -74 20 -106h-164c-8 19 -11 32 -12 80v276c1 29 2 78 -81 78c-17 0 -88 -2 -90 -68zM260 605l-123 148h172l49 -148h-98z" />
    <glyph glyph-name="aring" unicode="&#xe5;" horiz-adv-x="583" 
d="M346 351v-106c-14 -4 -82 -17 -98 -21c-43 -12 -66 -29 -66 -63s27 -58 72 -58c20 0 57 4 92 30c-2 -18 -3 -35 -3 -52c0 -9 3 -52 3 -61c-47 -38 -118 -38 -133 -38c-102 0 -187 63 -187 174c0 128 107 154 158 165c22 5 136 24 162 30zM198 367h-142
c8 124 91 188 232 188c58 0 119 -8 166 -42c67 -47 69 -113 71 -173v-233c0 -51 2 -74 20 -106h-164c-8 19 -11 32 -12 80v276c1 29 2 78 -81 78c-17 0 -88 -2 -90 -68zM217 669c-5 51 30 105 98 105c65 0 97 -50 97 -97c0 -64 -51 -96 -98 -96c-59 0 -93 43 -97 88z
M277 676c0 -23 19 -36 37 -36c19 0 38 15 38 38c0 17 -12 38 -38 38c-21 0 -37 -18 -37 -40z" />
    <glyph glyph-name="atilde" unicode="&#xe3;" horiz-adv-x="583" 
d="M346 351v-106c-14 -4 -82 -17 -98 -21c-43 -12 -66 -29 -66 -63s27 -58 72 -58c20 0 57 4 92 30c-2 -18 -3 -35 -3 -52c0 -9 3 -52 3 -61c-47 -38 -118 -38 -133 -38c-102 0 -187 63 -187 174c0 128 107 154 158 165c22 5 136 24 162 30zM198 367h-142
c8 124 91 188 232 188c58 0 119 -8 166 -42c67 -47 69 -113 71 -173v-233c0 -51 2 -74 20 -106h-164c-8 19 -11 32 -12 80v276c1 29 2 78 -81 78c-17 0 -88 -2 -90 -68zM219 603h-71c-2 27 -2 30 -2 43c0 25 2 52 20 77c6 7 23 29 60 29c6 0 12 -1 18 -2
c13 -2 74 -30 88 -35c5 -2 11 -4 18 -4c29 0 30 29 30 40h66c1 -10 2 -23 2 -44c0 -41 -5 -105 -69 -105c-13 0 -26 3 -35 6c-16 6 -83 38 -98 38c-27 0 -27 -28 -27 -43z" />
    <glyph glyph-name="eacute" unicode="&#xe9;" 
d="M414 169l156 -11c-7 -18 -19 -49 -47 -83c-52 -62 -132 -90 -213 -90c-184 0 -277 131 -277 284c0 168 113 289 279 289c95 0 162 -42 201 -95c48 -63 63 -151 63 -237h-354c-4 18 -5 33 -6 56c0 22 1 40 6 61h192c-5 28 -15 46 -22 56c-18 24 -49 38 -82 38
c-57 0 -121 -36 -121 -159c0 -77 28 -168 125 -168c70 0 93 45 100 59zM346 606h-98l45 149h164z" />
    <glyph glyph-name="ecircumflex" unicode="&#xea;" 
d="M414 169l156 -11c-7 -18 -19 -49 -47 -83c-52 -62 -132 -90 -213 -90c-184 0 -277 131 -277 284c0 168 113 289 279 289c95 0 162 -42 201 -95c48 -63 63 -151 63 -237h-354c-4 18 -5 33 -6 56c0 22 1 40 6 61h192c-5 28 -15 46 -22 56c-18 24 -49 38 -82 38
c-57 0 -121 -36 -121 -159c0 -77 28 -168 125 -168c70 0 93 45 100 59zM262 601h-115l97 152h142l89 -152h-112l-50 85z" />
    <glyph glyph-name="edieresis" unicode="&#xeb;" 
d="M414 169l156 -11c-7 -18 -19 -49 -47 -83c-52 -62 -132 -90 -213 -90c-184 0 -277 131 -277 284c0 168 113 289 279 289c95 0 162 -42 201 -95c48 -63 63 -151 63 -237h-354c-4 18 -5 33 -6 56c0 22 1 40 6 61h192c-5 28 -15 46 -22 56c-18 24 -49 38 -82 38
c-57 0 -121 -36 -121 -159c0 -77 28 -168 125 -168c70 0 93 45 100 59zM135 604v125h139v-125h-139zM355 604v125h137v-125h-137z" />
    <glyph glyph-name="egrave" unicode="&#xe8;" 
d="M414 169l156 -11c-7 -18 -19 -49 -47 -83c-52 -62 -132 -90 -213 -90c-184 0 -277 131 -277 284c0 168 113 289 279 289c95 0 162 -42 201 -95c48 -63 63 -151 63 -237h-354c-4 18 -5 33 -6 56c0 22 1 40 6 61h192c-5 28 -15 46 -22 56c-18 24 -49 38 -82 38
c-57 0 -121 -36 -121 -159c0 -77 28 -168 125 -168c70 0 93 45 100 59zM269 605l-123 148h172l49 -148h-98z" />
    <glyph glyph-name="iacute" unicode="&#xed;" horiz-adv-x="271" 
d="M212 0h-154v542h154v-542zM169 606h-98l45 149h164z" />
    <glyph glyph-name="icircumflex" unicode="&#xee;" horiz-adv-x="271" 
d="M212 0h-154v542h154v-542zM85 601h-115l97 152h142l89 -152h-112l-50 85z" />
    <glyph glyph-name="idieresis" unicode="&#xef;" horiz-adv-x="271" 
d="M212 0h-154v542h154v-542zM-42 604v125h139v-125h-139zM178 604v125h137v-125h-137z" />
    <glyph glyph-name="igrave" unicode="&#xec;" horiz-adv-x="271" 
d="M212 0h-154v542h154v-542zM102 605l-123 148h172l49 -148h-98z" />
    <glyph glyph-name="ntilde" unicode="&#xf1;" 
d="M212 0h-156v541h156v-541zM238 382v123c34 25 67 45 124 45c46 0 85 -14 114 -35c70 -50 72 -126 73 -182v-333h-157v326c0 25 -5 93 -80 93c-44 0 -65 -26 -74 -37zM228 603h-71c-2 27 -2 30 -2 43c0 25 2 52 20 77c6 7 23 29 60 29c6 0 12 -1 18 -2
c13 -2 74 -30 88 -35c5 -2 11 -4 18 -4c29 0 30 29 30 40h66c1 -10 2 -23 2 -44c0 -41 -5 -105 -69 -105c-13 0 -26 3 -35 6c-16 6 -83 38 -98 38c-27 0 -27 -28 -27 -43z" />
    <glyph glyph-name="oacute" unicode="&#xf3;" horiz-adv-x="625" 
d="M301 110v-127c-253 13 -270 231 -270 288c0 147 87 274 270 288v-124c-112 -15 -112 -132 -112 -163c0 -142 80 -157 112 -162zM327 -17v127c34 8 109 27 109 167c0 97 -40 150 -109 158v124c200 -11 267 -160 267 -282c0 -143 -86 -280 -267 -294zM347 606h-98l45 149
h164z" />
    <glyph glyph-name="ocircumflex" unicode="&#xf4;" horiz-adv-x="625" 
d="M301 110v-127c-253 13 -270 231 -270 288c0 147 87 274 270 288v-124c-112 -15 -112 -132 -112 -163c0 -142 80 -157 112 -162zM327 -17v127c34 8 109 27 109 167c0 97 -40 150 -109 158v124c200 -11 267 -160 267 -282c0 -143 -86 -280 -267 -294zM263 601h-115l97 152
h142l89 -152h-112l-50 85z" />
    <glyph glyph-name="odieresis" unicode="&#xf6;" horiz-adv-x="625" 
d="M301 110v-127c-253 13 -270 231 -270 288c0 147 87 274 270 288v-124c-112 -15 -112 -132 -112 -163c0 -142 80 -157 112 -162zM327 -17v127c34 8 109 27 109 167c0 97 -40 150 -109 158v124c200 -11 267 -160 267 -282c0 -143 -86 -280 -267 -294zM136 609v125h139v-125
h-139zM356 609v125h137v-125h-137z" />
    <glyph glyph-name="ograve" unicode="&#xf2;" horiz-adv-x="625" 
d="M301 110v-127c-253 13 -270 231 -270 288c0 147 87 274 270 288v-124c-112 -15 -112 -132 -112 -163c0 -142 80 -157 112 -162zM327 -17v127c34 8 109 27 109 167c0 97 -40 150 -109 158v124c200 -11 267 -160 267 -282c0 -143 -86 -280 -267 -294zM280 605l-123 148h172
l49 -148h-98z" />
    <glyph glyph-name="otilde" unicode="&#xf5;" horiz-adv-x="625" 
d="M301 110v-127c-253 13 -270 231 -270 288c0 147 87 274 270 288v-124c-112 -15 -112 -132 -112 -163c0 -142 80 -157 112 -162zM327 -17v127c34 8 109 27 109 167c0 97 -40 150 -109 158v124c200 -11 267 -160 267 -282c0 -143 -86 -280 -267 -294zM239 603h-71
c-2 27 -2 30 -2 43c0 25 2 52 20 77c6 7 23 29 60 29c6 0 12 -1 18 -2c13 -2 74 -30 88 -35c5 -2 11 -4 18 -4c29 0 30 29 30 40h66c1 -10 2 -23 2 -44c0 -41 -5 -105 -69 -105c-13 0 -26 3 -35 6c-16 6 -83 38 -98 38c-27 0 -27 -28 -27 -43z" />
    <glyph glyph-name="scaron" unicode="&#x161;" horiz-adv-x="562" 
d="M265 101v-116c-165 13 -225 84 -233 200l148 5c8 -47 18 -76 85 -89zM303 203l-101 25c-62 17 -153 42 -153 158c0 28 5 72 40 110c53 56 130 60 175 63v-113c-33 -2 -67 -11 -67 -45c0 -27 20 -33 67 -46l80 -18c69 -16 185 -41 185 -172c0 -68 -34 -123 -102 -154
c-54 -25 -112 -26 -135 -26v114c21 1 80 6 80 52c0 33 -34 43 -69 52zM514 375l-146 -8c-2 66 -55 74 -76 78v114c62 -3 122 -18 166 -59c42 -40 52 -84 56 -125zM207 602l-88 152h113l48 -84l51 84h114l-96 -152h-142z" />
    <glyph glyph-name="uacute" unicode="&#xfa;" 
d="M56 222v319h156v-312c1 -40 3 -63 18 -84c18 -24 47 -31 66 -31c38 0 60 21 71 30v-115c-32 -21 -70 -43 -129 -43c-40 0 -107 12 -145 66c-35 48 -36 113 -37 170zM548 0h-155v541h155v-541zM336 606h-98l45 149h164z" />
    <glyph glyph-name="ucircumflex" unicode="&#xfb;" 
d="M56 222v319h156v-312c1 -40 3 -63 18 -84c18 -24 47 -31 66 -31c38 0 60 21 71 30v-115c-32 -21 -70 -43 -129 -43c-40 0 -107 12 -145 66c-35 48 -36 113 -37 170zM548 0h-155v541h155v-541zM252 601h-115l97 152h142l89 -152h-112l-50 85z" />
    <glyph glyph-name="udieresis" unicode="&#xfc;" 
d="M56 222v319h156v-312c1 -40 3 -63 18 -84c18 -24 47 -31 66 -31c38 0 60 21 71 30v-115c-32 -21 -70 -43 -129 -43c-40 0 -107 12 -145 66c-35 48 -36 113 -37 170zM548 0h-155v541h155v-541zM126 608v125h139v-125h-139zM346 608v125h137v-125h-137z" />
    <glyph glyph-name="ugrave" unicode="&#xf9;" 
d="M56 222v319h156v-312c1 -40 3 -63 18 -84c18 -24 47 -31 66 -31c38 0 60 21 71 30v-115c-32 -21 -70 -43 -129 -43c-40 0 -107 12 -145 66c-35 48 -36 113 -37 170zM548 0h-155v541h155v-541zM269 605l-123 148h172l49 -148h-98z" />
    <glyph glyph-name="yacute" unicode="&#xfd;" horiz-adv-x="521" 
d="M174 52l-175 490h169l161 -573c-47 -115 -66 -132 -218 -135h-61v123h49c21 0 41 1 55 11c17 13 25 39 25 56c0 9 -2 18 -5 28zM344 14l-66 233l79 295h165zM295 606h-98l45 149h164z" />
    <glyph glyph-name="ydieresis" unicode="&#xff;" horiz-adv-x="521" 
d="M174 52l-175 490h169l161 -573c-47 -115 -66 -132 -218 -135h-61v123h49c21 0 41 1 55 11c17 13 25 39 25 56c0 9 -2 18 -5 28zM344 14l-66 233l79 295h165zM84 604v125h139v-125h-139zM304 604v125h137v-125h-137z" />
    <glyph glyph-name="zcaron" unicode="&#x17e;" horiz-adv-x="542" 
d="M23 0v117l389 424h73v-119l-378 -422h-84zM261 416h-208v125h325zM502 0h-361l117 130h244v-130zM197 602l-88 152h113l48 -84l51 84h114l-96 -152h-142z" />
    </font>
</defs>
</svg>
